<svg viewBox="0 0 1440 437" fill="none" xmlns="http://www.w3.org/2000/svg">
    <path d="M1395.89 370.101H1367.12V409.062H1361.2V370.101H1331.58V285.263H1314.65V357.637H1306.19V255.51H1298.57V315.821H1276.57V286.068H1258.8V398.648L1249.49 407.494V282.449H1229.17V392.215H1197.02V249.479H1175.01V303.477H1109.85V264.356H1016.75V303.477H965.131V257.922H893.196V319.842H866.961V229.375H855.113V339.945L834.802 359.245V257.118H820.415V393.019H777.254V312.604H756.943V353.616H720.975V0.997681H1440.33V370.101H1395.89Z" fill="#E6645B"/>
    <path d="M44.5324 370.95H73.3724V410H79.31V370.95H108.998V285.918H125.963V358.457H134.445V256.096H142.079V316.545H164.134V286.724H181.946V399.562L191.277 408.428V283.097H211.635V393.114H243.868V250.051H265.922V304.173H331.236V264.962H424.542V304.173H476.284V258.514H548.384V320.575H574.679V229.901H586.555V340.725L606.912 360.069V257.708H621.332V393.92H664.592V313.321H684.95V354.427H721V1H0V370.95H44.5324Z" fill="#E6645B"/>
    <path d="M1440.33 401.202L1385.72 436V252.346H1375.41V276.189H1350.92V262.012H1323.86H1287.77V240.747H1265.22V362.539H1237.51V249.124H1227.2L1211.73 346.429L1192.4 225.282L1177.58 178.498H1157.6V352.228H1142.78V361.894H1109.27V352.873H1089.94V265.492H1051.92V311.631H1044.19V265.492H1026.15L1006.81 238.17H978.459V330.319H917.241V216.26H837.335V287.788H795.448V215.616H772.894V313.564H729.719V336.118L710 363.827V0H1440.33V401.202Z" fill="#9D3469"/>
    <path d="M0 402.123L54.7278 437V252.925H65.0619V276.823H89.6054V262.613H116.732H152.902V241.299H175.508V363.37H203.281V249.696H213.615L229.116 347.223L248.492 225.798L263.348 178.908H283.37V353.036H298.225V362.724H331.811V353.682H351.188V266.101H389.295V312.346H397.045V266.101H415.13L434.507 238.716H462.925V331.076H524.284V216.756H604.374V288.448H646.356V216.11H668.962V314.283H712.236V336.889L732 364.662V0H0V402.123Z" fill="#9D3469"/>
    <path d="M1439.33 321.263H1418.12V313.576H1407.63V234.446H1377.89V242.559H1351.43V209.25H1340.34V278.431H1330.1V287.399H1289.01V279.712H1274.76V209.25L1255.77 228.254H1225.57V168.382H1207.65V220.78L1173.09 255.371V163.557H1152.18V200.709H1120.61V213.094H1066.85V201.564H1043.38V168.681H1029.73V242.559H1020.34V251.954H986.632V242.559H974.259V161.422H922.632V302.345H876.552L833.672 259.428V173.379H798.898V225.905H785.672V236.154H719.538V227.186H713.991V3.05176e-05H1439.33V321.263Z" fill="#582051"/>
    <path d="M1 322H22.2541V314.296H32.7742V234.983H62.5812V243.116H89.0953V209.73H100.214V279.07H110.478V288.058H151.66V280.354H165.943V209.73L184.974 228.777H215.251V168.769H233.212V221.287L267.852 255.956V163.932H288.806V201.17H320.452V213.582H374.336V202.026H397.856V169.068H411.541V243.116H420.949V252.532H454.734V243.116H467.135V161.792H518.881V303.039H565.066L608.045 260.023V173.776H642.898V226.423H656.155V236.695H722.441V227.707H728V0H1V322Z" fill="#582051"/>
    <path d="M1440.33 209.24L1405.79 231.184L1361.45 209.326V145.036H1331.25V121.892H1306.83V105.177H1285.62V164.323H1237.42L1220.07 155.966V71.7467H1209.14V60.8176H1200.15V141.822H1144.24L1119.17 127.678V64.6749H1076.16V159.009H992.188V120.006H988.332V178.081L954.487 243.442L921.497 178.081V152.151H891.079V183.01H885.081V190.296H827.243V183.438H821.245V157.294H750.126V139.722H728.704V145.722H711.996V1.52588e-05H1440.33V209.24Z" fill="#2B1535"/>
    <path d="M0 209.72L34.6106 231.714L79.0547 209.806V145.369H109.328V122.172H133.805V105.418H155.061V164.7H203.369L220.761 156.323V71.9113H231.711V60.957H240.728V142.147H296.766L321.887 127.971V64.8232H365V159.373H449.165V120.282H453.029V178.489L486.953 244L520.018 178.489V152.5H550.506V183.43H556.518V190.732H614.488V183.859H620.5V157.655H691.782V140.042H713.253V146.056H730V0H0V209.72Z" fill="#2B1535"/>
</svg>