<svg viewBox="0 0 1439 322" fill="none" xmlns="http://www.w3.org/2000/svg">
    <path d="M1438.33 321.263H1417.12V313.576H1406.63V234.446H1376.89V242.559H1350.43V209.25H1339.34V278.431H1329.1V287.399H1288.01V279.712H1273.76V209.25L1254.77 228.254H1224.57V168.382H1206.65V220.78L1172.09 255.371V163.557H1151.18V200.709H1119.61V213.094H1065.85V201.564H1042.38V168.681H1028.73V242.559H1019.34V251.954H985.632V242.559H973.259V161.422H921.632V302.345H875.552L832.672 259.428V173.379H797.898V225.905H784.672V236.154H718.538V227.186H712.991V3.05176e-05H1438.33V321.263Z" fill="#582051"/>
    <path d="M0 322H21.2541V314.296H31.7742V234.983H61.5812V243.116H88.0953V209.73H99.2141V279.07H109.478V288.058H150.66V280.354H164.943V209.73L183.974 228.777H214.251V168.769H232.212V221.287L266.852 255.956V163.932H287.806V201.17H319.452V213.582H373.336V202.026H396.856V169.068H410.541V243.116H419.949V252.532H453.734V243.116H466.135V161.792H517.881V303.039H564.066L607.045 260.023V173.776H641.898V226.423H655.155V236.695H721.441V227.707H727V0H0V322Z" fill="#582051"/>
</svg>