<svg viewBox="0 0 1440 244" fill="none" xmlns="http://www.w3.org/2000/svg">
    <path d="M1440.33 209.24L1405.79 231.184L1361.45 209.326V145.036H1331.25V121.892H1306.83V105.177H1285.62V164.323H1237.42L1220.07 155.966V71.7467H1209.14V60.8176H1200.15V141.822H1144.24L1119.17 127.678V64.6749H1076.16V159.009H992.188V120.006H988.332V178.081L954.487 243.442L921.497 178.081V152.151H891.079V183.01H885.081V190.296H827.243V183.438H821.245V157.294H750.126V139.722H728.704V145.722H711.996V1.52588e-05H1440.33V209.24Z" fill="#2B1535"/>
    <path d="M0 209.72L34.6106 231.714L79.0547 209.806V145.369H109.328V122.172H133.805V105.418H155.061V164.7H203.369L220.761 156.323V71.9113H231.711V60.957H240.728V142.147H296.766L321.887 127.971V64.8232H365V159.373H449.165V120.282H453.029V178.489L486.953 244L520.018 178.489V152.5H550.506V183.43H556.518V190.732H614.488V183.859H620.5V157.655H691.782V140.042H713.253V146.056H730V0H0V209.72Z" fill="#2B1535"/>
</svg>