<svg viewBox="0 0 1439 565" fill="none" xmlns="http://www.w3.org/2000/svg">
    <path d="M603.611 512.297C620.118 528.804 639.322 541.75 660.737 550.813C682.962 560.199 706.536 565 730.811 565C755.085 565 778.605 560.253 800.884 550.813C822.3 541.75 841.558 528.804 858.011 512.297C874.517 495.79 887.464 476.586 896.527 455.17C905.913 432.945 910.714 409.372 910.714 385.097C910.714 360.822 905.967 337.302 896.527 315.024C887.464 293.608 874.517 274.35 858.011 257.897C841.504 241.39 822.3 228.443 800.884 219.381C778.659 209.995 755.085 205.194 730.811 205.194C706.536 205.194 683.016 209.941 660.737 219.381C639.322 228.443 620.064 241.39 603.611 257.897C587.104 274.404 574.157 293.608 565.095 315.024C555.709 337.248 550.907 360.822 550.907 385.097C550.907 409.372 555.655 432.891 565.095 455.17C574.157 476.586 587.158 495.844 603.611 512.297ZM730.865 313.082C770.621 313.082 802.88 345.34 802.88 385.097C802.88 424.854 770.621 457.112 730.865 457.112C691.108 457.112 658.849 424.854 658.849 385.097C658.849 345.34 691.054 313.082 730.865 313.082Z" fill="#FFA163"/>
    <path d="M0 340L1438 340L1438 0L-2.97238e-05 0.000125714L0 340Z" fill="#FDD05F"/>
    <path d="M0 426L1439 426L1439 340L-7.51837e-06 340L0 426Z" fill="#FFA163"/>
    <path d="M657.092 458.815C666.659 468.381 677.788 475.885 690.2 481.137C703.08 486.576 716.742 489.359 730.81 489.359C744.879 489.359 758.509 486.608 771.421 481.137C783.832 475.885 794.993 468.381 804.528 458.815C814.095 449.248 821.598 438.119 826.85 425.707C832.29 412.827 835.072 399.165 835.072 385.097C835.072 371.028 832.321 357.398 826.85 344.486C821.598 332.075 814.095 320.914 804.528 311.379C794.962 301.812 783.832 294.309 771.421 289.057C758.54 283.617 744.879 280.835 730.81 280.835C716.742 280.835 703.111 283.586 690.2 289.057C677.788 294.309 666.627 301.812 657.092 311.379C647.526 320.945 640.022 332.075 634.77 344.486C629.331 357.367 626.548 371.028 626.548 385.097C626.548 399.165 629.299 412.796 634.77 425.707C640.022 438.119 647.557 449.28 657.092 458.815ZM730.841 343.361C753.882 343.361 772.578 362.056 772.578 385.097C772.578 408.138 753.882 426.833 730.841 426.833C707.801 426.833 689.105 408.138 689.105 385.097C689.105 362.056 707.769 343.361 730.841 343.361Z" fill="#FDD05F"/>
    <path d="M730.909 343C707.763 343 689 361.763 689 384.909C689 408.055 707.763 426.819 730.909 426.819C754.055 426.819 772.818 408.055 772.818 384.909C772.818 361.763 754.055 343 730.909 343Z" fill="white"/>
</svg>