<svg viewBox="0 0 2324 1049" fill="none" xmlns="http://www.w3.org/2000/svg">
    <path d="M2295.13 8.43583L2255.68 6.79212C2255.68 6.79212 2179.96 -1.42635 2175.03 0.217349C2170.1 1.86105 2114.11 3.50473 2109.66 6.79212C2105.21 10.0795 2087.61 12.3033 2077.94 15.0106C2068.27 17.7179 2053.29 21.5854 2053.29 21.5854H2038.49C2038.49 21.5854 2020.41 29.8039 2016.25 31.4476C2012.19 33.0913 1979.22 46.2408 1979.22 46.2408L1934.83 47.8845L1907.46 44.5971L1844.32 41.3098L1821.31 29.8039L1798.29 21.5854L1775.28 28.1602L1744.04 41.3098H1719.39H1698.3H1668.42H1650.73L1641.25 56.103L1650.73 74.2804L1668.42 85.7863L1686.6 97.2921L1692.02 103.48V108.121V123.978C1692.02 123.978 1693.95 133.744 1694.53 136.741C1695.11 139.738 1697.53 160.429 1697.53 160.429C1697.53 160.429 1697.53 181.121 1697.53 182.958C1697.53 184.795 1698.11 213.414 1697.53 215.832C1696.95 218.249 1693.37 238.94 1694.82 241.357C1696.27 243.774 1697.72 236.62 1697.72 236.62L1700.34 226.371C1700.34 226.371 1702.27 219.216 1702.27 218.055C1702.27 216.895 1702.66 210.224 1702.27 209.354C1701.88 208.483 1702.95 203.262 1702.46 201.715C1701.88 200.168 1702.66 192.24 1702.66 192.24C1702.66 192.24 1702.56 185.085 1702.66 183.925C1702.75 182.764 1702.66 175.996 1702.66 175.996C1702.66 175.996 1702.27 164.974 1702.66 163.91C1703.04 162.75 1701.88 159.366 1702.66 158.206C1703.43 157.045 1702.46 152.501 1702.75 151.341C1703.04 150.18 1703.62 143.896 1702.95 143.026C1702.27 142.252 1703.24 136.547 1703.24 136.547L1706.81 140.705V146.796V152.114V158.592V163.137L1710.59 161.976C1710.59 161.976 1710.59 153.661 1710.59 152.114C1710.59 150.567 1710.2 147.957 1710.59 146.023C1710.97 144.089 1712.52 142.252 1712.91 140.705C1713.29 139.158 1712.52 138.094 1712.91 136.161C1713.29 134.227 1712.71 132.003 1713 130.456C1713.29 128.909 1713 126.685 1713 126.685C1713 126.685 1710.78 126.299 1711.26 123.495L1721.32 132.583L1723.93 134.42L1722.58 141.092L1723.25 146.313C1723.25 146.313 1723.83 151.244 1724.03 153.178C1724.22 155.112 1724.9 159.172 1724.99 161.106C1725.09 163.04 1724.99 171.742 1724.99 171.742V178.607V186.922V197.558V204.036C1724.99 204.036 1721.22 206.356 1720.45 209.354C1719.68 212.351 1717.84 214.961 1717.45 217.669C1717.06 220.279 1717.06 221.826 1717.06 223.373C1717.06 224.92 1717.45 226.757 1717.45 227.918C1717.45 229.078 1718.22 231.302 1718.22 231.302C1717.45 227.918 1720.84 223.76 1721.22 222.6C1721.61 221.44 1721.61 218.829 1722.38 217.282C1722.77 216.605 1723.83 214.671 1724.9 213.028C1726.06 211.191 1727.12 209.45 1727.12 209.45C1727.12 209.45 1729.93 205.196 1729.93 204.132C1729.93 203.069 1729.93 199.975 1729.93 197.654C1729.93 195.334 1729.54 193.11 1729.93 191.176C1730.31 189.242 1729.15 185.858 1729.93 183.635C1730.7 181.314 1728.57 178.703 1730.02 177.156C1731.47 175.609 1730.7 173.386 1731.86 172.225C1733.02 171.065 1734.18 167.294 1734.18 167.294C1734.18 167.294 1734.95 164.684 1734.18 163.137C1733.41 161.59 1733.02 160.139 1732.63 158.592C1732.25 157.045 1731.09 155.208 1731.09 153.661C1731.09 152.114 1730.31 151.051 1730.31 148.73C1730.31 146.41 1730.02 138.868 1730.02 138.868L1735.92 143.122L1755.74 146.603C1755.74 152.308 1755.74 158.786 1755.74 159.753C1755.74 161.59 1756.32 190.209 1755.74 192.627C1755.16 195.044 1751.59 215.735 1753.04 218.152C1754.49 220.569 1755.94 213.414 1755.94 213.414L1758.55 203.165C1758.55 203.165 1760.48 196.011 1760.48 194.85C1760.48 193.69 1760.87 187.019 1760.48 186.148C1760.1 185.278 1761.16 180.057 1760.68 178.51C1760.1 176.963 1760.87 169.035 1760.87 169.035C1760.87 169.035 1760.77 161.88 1760.87 160.719C1760.97 159.559 1760.87 152.791 1760.87 152.791C1760.87 152.791 1760.77 150.18 1760.77 147.473L1783.3 151.437V155.498V163.814V174.449V180.927C1783.3 180.927 1779.53 183.248 1778.76 186.245C1777.98 189.242 1776.15 191.853 1775.76 194.56C1775.37 197.171 1775.37 198.718 1775.37 200.265C1775.37 201.812 1775.76 203.649 1775.76 204.809C1775.76 205.969 1776.53 208.193 1776.53 208.193C1775.76 204.809 1779.15 200.652 1779.53 199.491C1779.92 198.331 1779.92 195.721 1780.69 194.174C1781.08 193.497 1782.14 191.563 1783.21 189.919C1784.37 188.082 1785.43 186.342 1785.43 186.342C1785.43 186.342 1788.23 182.088 1788.23 181.024C1788.23 179.96 1788.23 176.866 1788.23 174.546C1788.23 172.225 1787.85 170.002 1788.23 168.068C1788.62 166.134 1787.46 162.75 1788.23 160.526C1789.01 158.302 1786.88 155.595 1788.33 154.048C1788.72 153.565 1789.01 153.081 1789.11 152.501L1863.18 165.457H1942.86H2024.28L2109.95 209.45V218.732C2109.95 218.732 2111.89 228.498 2112.47 231.495C2113.05 234.492 2115.46 255.184 2115.46 255.184C2115.46 255.184 2115.46 275.875 2115.46 277.712C2115.46 279.549 2116.04 308.169 2115.46 310.586C2114.88 313.003 2111.31 333.694 2112.76 336.112C2114.21 338.529 2115.66 331.374 2115.66 331.374L2118.27 321.125C2118.27 321.125 2120.2 313.97 2120.2 312.81C2120.2 311.65 2120.59 304.978 2120.2 304.108C2119.82 303.334 2120.88 298.016 2120.4 296.469C2119.91 294.922 2120.59 286.994 2120.59 286.994C2120.59 286.994 2120.49 279.839 2120.59 278.679C2120.69 277.519 2120.59 270.75 2120.59 270.75C2120.59 270.75 2120.2 259.728 2120.59 258.664C2120.98 257.504 2119.82 254.12 2120.59 252.96C2121.36 251.8 2120.4 247.255 2120.69 246.095C2120.98 244.935 2121.56 238.65 2120.88 237.78C2120.2 236.91 2121.17 231.302 2121.17 231.302L2124.75 235.459V241.551V246.869V253.347V257.891L2128.52 256.731C2128.52 256.731 2128.52 248.416 2128.52 246.869C2128.52 245.322 2128.13 242.711 2128.52 240.777C2128.91 238.843 2130.45 237.006 2130.84 235.459C2131.23 233.912 2130.45 232.849 2130.84 230.915C2131.23 228.981 2130.65 226.757 2130.94 225.21C2131.13 224.244 2131.03 222.89 2131.03 222.116L2141.96 228.691L2140.51 235.846L2141.19 241.067C2141.19 241.067 2141.77 245.998 2141.96 247.932C2142.15 249.866 2142.83 253.927 2142.93 255.86C2143.02 257.794 2142.93 266.496 2142.93 266.496V273.361V281.676V292.312V298.79C2142.93 298.79 2139.16 301.111 2138.38 304.108C2137.61 307.105 2135.77 309.716 2135.38 312.423C2135 315.034 2135 316.581 2135 318.128C2135 319.675 2135.38 321.512 2135.38 322.672C2135.38 323.832 2136.16 326.056 2136.16 326.056C2135.38 322.672 2138.77 318.514 2139.16 317.354C2139.54 316.194 2139.54 313.583 2140.32 312.036C2140.7 311.359 2141.77 309.426 2142.83 307.782C2143.99 305.945 2145.05 304.204 2145.05 304.204C2145.05 304.204 2147.86 299.95 2147.86 298.887C2147.86 297.823 2147.86 294.729 2147.86 292.409C2147.86 290.088 2147.47 287.864 2147.86 285.93C2148.25 283.997 2147.08 280.613 2147.86 278.389C2148.63 276.165 2146.5 273.458 2147.96 271.911C2149.41 270.364 2148.63 268.14 2149.79 266.98C2150.95 265.819 2152.11 262.049 2152.11 262.049C2152.11 262.049 2152.89 259.438 2152.11 257.891C2151.34 256.344 2150.95 254.894 2150.57 253.347C2150.18 251.8 2149.02 249.963 2149.02 248.416C2149.02 246.869 2148.24 245.805 2148.24 243.484C2148.24 241.164 2147.96 233.622 2147.96 233.622C2147.96 233.622 2147.95 233.139 2147.86 232.365L2152.31 235.073V247.159V263.015C2152.31 263.015 2154.24 272.781 2154.82 275.778C2155.4 278.776 2157.82 299.467 2157.82 299.467C2157.82 299.467 2157.82 320.158 2157.82 321.995C2157.82 323.832 2158.4 352.452 2157.82 354.869C2157.24 357.286 2153.66 377.978 2155.11 380.395C2156.56 382.812 2158.01 375.657 2158.01 375.657L2160.62 365.408C2160.62 365.408 2162.56 358.253 2162.56 357.093C2162.56 355.933 2162.94 349.261 2162.56 348.391C2162.17 347.618 2163.23 342.3 2162.75 340.753C2162.27 339.206 2162.94 331.277 2162.94 331.277C2162.94 331.277 2162.85 324.122 2162.94 322.962C2163.04 321.802 2162.94 315.034 2162.94 315.034C2162.94 315.034 2162.56 304.011 2162.94 302.948C2163.33 301.787 2162.17 298.403 2162.94 297.243C2163.72 296.083 2162.75 291.538 2163.04 290.378C2163.33 289.218 2163.91 282.933 2163.23 282.063C2162.56 281.193 2163.52 275.585 2163.52 275.585L2167.1 279.742V285.834V291.152V297.63V302.174L2170.87 301.014C2170.87 301.014 2170.87 292.699 2170.87 291.152C2170.87 289.605 2170.49 286.994 2170.87 285.06C2171.26 283.127 2172.81 281.289 2173.19 279.742C2173.58 278.195 2172.81 277.132 2173.19 275.198C2173.58 273.264 2173 271.04 2173.29 269.493C2173.58 267.946 2173.29 265.723 2173.29 265.723C2173.29 265.723 2170.87 265.336 2171.65 262.339C2172.42 259.341 2171.65 250.639 2171.65 250.639L2172.52 247.352L2181.7 252.863L2185.28 267.947L2182.86 280.129L2183.54 285.35C2183.54 285.35 2184.12 290.281 2184.31 292.215C2184.51 294.149 2185.18 298.21 2185.28 300.144C2185.38 302.077 2185.28 310.779 2185.28 310.779V317.644V325.959V336.595V343.073C2185.28 343.073 2181.51 345.394 2180.74 348.391C2179.96 351.388 2178.12 353.999 2177.74 356.706C2177.35 359.317 2177.35 360.864 2177.35 362.411C2177.35 363.958 2177.74 365.795 2177.74 366.955C2177.74 368.115 2178.51 370.339 2178.51 370.339C2177.74 366.955 2181.12 362.797 2181.51 361.637C2181.9 360.477 2181.9 357.866 2182.67 356.319C2183.06 355.643 2184.12 353.709 2185.18 352.065C2186.34 350.228 2187.41 348.488 2187.41 348.488C2187.41 348.488 2190.21 344.233 2190.21 343.17C2190.21 342.106 2190.21 339.012 2190.21 336.692C2190.21 334.371 2189.83 332.147 2190.21 330.214C2190.6 328.28 2189.44 324.896 2190.21 322.672C2190.99 320.351 2188.86 317.741 2190.31 316.194C2191.76 314.647 2190.99 312.423 2192.15 311.263C2193.31 310.103 2194.47 306.332 2194.47 306.332C2194.47 306.332 2195.24 303.721 2194.47 302.174C2193.69 300.627 2193.31 299.177 2192.92 297.63C2192.53 296.083 2191.37 294.246 2191.37 292.699C2191.37 291.152 2190.6 290.088 2190.6 287.768C2190.6 285.447 2190.31 277.905 2190.31 277.905C2190.31 277.905 2189.83 270.267 2190.6 267.656C2190.99 266.206 2191.08 261.952 2191.08 258.568L2194.76 260.792V272.201C2194.76 272.201 2196.69 281.966 2197.27 284.964C2197.85 287.961 2200.27 308.652 2200.27 308.652C2200.27 308.652 2200.27 329.343 2200.27 331.18C2200.27 333.018 2200.85 361.637 2200.27 364.054C2199.69 366.472 2196.11 387.163 2197.56 389.58C2199.01 391.997 2200.46 384.842 2200.46 384.842L2203.07 374.593C2203.07 374.593 2205.01 367.439 2205.01 366.278C2205.01 365.118 2205.39 358.447 2205.01 357.576C2204.62 356.803 2205.68 351.485 2205.2 349.938C2204.72 348.391 2205.39 340.463 2205.39 340.463C2205.39 340.463 2205.3 333.308 2205.39 332.147C2205.49 330.987 2205.39 324.219 2205.39 324.219C2205.39 324.219 2205.01 313.197 2205.39 312.133C2205.78 310.973 2204.62 307.589 2205.39 306.428C2206.17 305.268 2205.2 300.724 2205.49 299.564C2205.78 298.403 2206.36 292.118 2205.68 291.248C2205.01 290.378 2205.97 284.77 2205.97 284.77L2209.55 288.928V295.019V300.337V306.815V311.359L2213.32 310.199C2213.32 310.199 2213.32 301.884 2213.32 300.337C2213.32 298.79 2212.94 296.179 2213.32 294.246C2213.71 292.312 2215.26 290.475 2215.64 288.928C2216.03 287.381 2215.26 286.317 2215.64 284.383C2216.03 282.45 2215.45 280.226 2215.74 278.679C2216.03 277.132 2215.74 274.908 2215.74 274.908C2215.74 274.908 2213.81 274.618 2213.9 272.394L2227.05 280.323L2225.22 289.411L2225.89 294.632C2225.89 294.632 2226.47 299.564 2226.67 301.497C2226.86 303.431 2227.54 307.492 2227.63 309.426C2227.73 311.359 2227.63 320.061 2227.63 320.061V326.926V335.241V345.877V352.355C2227.63 352.355 2223.86 354.676 2223.09 357.673C2222.32 360.67 2220.48 363.281 2220.09 365.988C2219.71 368.599 2219.71 370.146 2219.71 371.693C2219.71 373.24 2220.09 375.077 2220.09 376.237C2220.09 377.397 2220.87 379.621 2220.87 379.621C2220.09 376.237 2223.48 372.079 2223.86 370.919C2224.25 369.759 2224.25 367.148 2225.02 365.601C2225.41 364.925 2226.47 362.991 2227.54 361.347C2228.7 359.51 2229.76 357.77 2229.76 357.77C2229.76 357.77 2232.57 353.515 2232.57 352.452C2232.57 351.292 2232.57 348.294 2232.57 345.974C2232.57 343.653 2232.18 341.429 2232.57 339.496C2232.95 337.562 2231.79 334.178 2232.57 331.954C2233.34 329.634 2231.21 327.023 2232.66 325.476C2234.11 323.929 2233.34 321.705 2234.5 320.545C2235.66 319.385 2236.82 315.614 2236.82 315.614C2236.82 315.614 2237.59 313.003 2236.82 311.456C2236.05 309.909 2235.66 308.459 2235.27 306.912C2234.89 305.365 2233.73 303.528 2233.73 301.981C2233.73 300.434 2232.95 299.37 2232.95 297.05C2232.95 296.276 2232.95 294.922 2232.86 293.472L2275.11 431.639L2254.13 480.08L2212.16 512.374L2142.25 525.62L2057.44 570.29L2037.91 577.348H2029.4L2023.79 593.205L2030.37 613.606L2039.65 622.888L2045.45 639.132V660.113C2045.45 660.113 2038.88 676.357 2038.01 678.097C2037.14 679.838 2023.12 691.247 2023.79 692.6C2024.57 693.954 2010.35 701.302 2010.35 701.302L2000.3 711.551L1996.33 720.833L1994.49 731.566H1978.34L1968.68 739.397L1961.52 750.613L1894.51 761.926L1821.21 862.385L1786.11 954.625L1634 1046.87L2323.85 1048.12V8.33911L2295.13 8.43583Z" fill="#33132C"/>
    <path d="M1134.28 1025.36C1112.33 1025.36 1065.43 1042.96 1043.87 1038.8C1018.63 1033.96 982.659 1037.93 958.194 1030.1C920.965 1018.2 860.528 1027.78 828.811 1004.96C806.57 988.907 780.461 959.611 757.35 944.914C721.668 922.096 686.47 898.601 651.755 874.235C647.79 871.431 630.868 860.119 629.127 855.574C617.717 826.278 590.351 799.012 577.877 770.199C565.306 741.192 552.542 711.412 550.511 679.795C549.737 668.58 545.289 647.405 540.261 637.253C520.438 638.316 509.897 599.641 490.074 601.091C452.555 603.702 402.948 618.302 367.266 606.603C334.582 595.87 301.801 569.281 278.884 543.562C243.975 543.079 200.944 538.341 169.904 522.194C144.472 508.948 118.17 487.87 103.182 463.408C90.0306 441.943 90.3207 418.254 81.7145 394.662C77.6532 383.543 74.4621 367.396 70.4974 356.181C56.8629 354.73 43.325 345.158 31.5278 338.1C13.3484 327.174 1.64779 306.29 1.84119 285.018C1.26099 284.825 0.680799 284.341 0.00390625 283.665V1047.5H1227.5C1227.5 1047.4 1227.4 1047.4 1227.4 1047.31C1200.91 1039.28 1162.04 1025.36 1134.28 1025.36Z" fill="#33132C"/>
    <path d="M618.003 1009.6C614.909 1005.64 610.847 1002.64 606.786 999.642C590.734 987.749 556.212 967.638 540.16 955.746C539.097 951.105 532.714 950.428 527.976 950.911C507.766 952.845 485.332 947.624 465.219 949.558C451.294 936.601 436.886 903.631 442.398 885.454C446.362 872.207 451.101 851.323 461.931 842.621C448.973 806.749 431.567 758.792 424.508 721.374C412.324 710.255 386.409 701.166 370.937 706.677C347.633 714.896 324.425 727.755 303.731 741.098C266.599 764.98 196.976 771.168 170.287 735.974C158.973 721.084 143.211 699.426 133.928 683.182C120.584 680.572 103.274 669.936 89.8333 671.483C69.4298 650.308 48.833 624.879 36.939 598C24.6582 601.287 12.3775 604.478 0 607.765V1047.5H635.699C632.218 1040.35 629.027 1033.19 626.029 1025.84C623.902 1020.14 621.774 1014.34 618.003 1009.6Z" fill="#280F23"/>
</svg>
