<svg viewBox="0 0 530 599" fill="none" xmlns="http://www.w3.org/2000/svg">
    <path d="M476.049 595.695C459.223 600.723 447.523 596.952 430.117 594.535C392.114 589.217 354.111 583.899 316.109 578.581C296.769 591.731 267.663 592.698 244.261 591.828C235.655 591.538 227.049 591.054 218.539 590.474C186.822 588.443 155.298 584.866 123.968 579.645C107.142 586.22 81.3237 579.355 65.3683 570.75C49.5097 562.144 33.9411 551.412 15.9551 549.478C61.4036 530.527 109.173 502.488 158.296 506.065C178.99 507.612 199.393 513.124 220.087 513.607C244.938 514.284 269.306 507.806 293.771 503.455C353.048 492.916 414.451 494.463 473.051 508.096C497.903 513.897 504.672 513.414 529.717 518.731V589.797C505.445 594.148 499.353 603.237 476.049 595.695Z" fill="#C94331"/>
    <path d="M405.942 573.747C341.444 564.078 273.271 545.901 208.096 547.738C185.855 548.318 164.291 554.989 142.147 557.503C120.003 560.017 95.9254 557.793 79.1964 543.193C53.3778 546.287 26.012 547.351 0 548.221C13.2478 520.472 56.9558 513.51 80.3569 493.689C113.525 465.65 151.334 423.59 155.975 380.371C185.469 361.807 218.83 322.068 247.743 302.634C256.929 296.446 276.656 283.199 287.776 283.489C317.656 284.166 347.729 274.111 371.227 255.546C379.35 249.165 392.501 225.767 389.31 215.904C411.551 201.401 420.35 163.886 431.471 139.714C440.367 120.473 453.808 93.4006 462.704 74.1597C478.273 71.8392 495.969 58.4962 497.129 42.8328C497.903 31.7136 505.349 13.633 514.632 7.54161C519.37 4.54428 524.398 2.03044 529.62 0.0966797V579.935C488.813 583.802 446.749 579.838 405.942 573.747Z" fill="#5F031B"/>
    <path d="M180.924 523.469C205.678 518.054 233.624 499.104 255.285 485.761C266.889 478.606 282.361 482.087 294.738 476.382C298.219 474.738 301.314 472.514 304.698 470.774C310.693 467.68 317.366 466.423 323.941 464.973C341.25 461.105 358.269 455.691 374.708 448.922C380.8 446.409 386.989 443.508 391.727 438.867C396.465 434.226 402.461 408.797 400.914 402.319C414.645 387.332 425.958 370.218 434.371 351.654C440.85 337.248 442.301 306.888 447.039 291.804C457.096 282.909 453.614 266.376 459.32 254.193C463.961 244.234 474.115 238.239 482.334 230.988C490.553 223.639 496.645 208.266 491.907 198.404C496.936 161.179 501.964 123.857 506.896 86.6325C510.28 61.3002 513.761 35.5812 522.754 11.6026C524.108 8.12179 525.559 4.54435 527.106 1.16027C528.073 0.773516 528.943 0.386752 529.91 0V579.838C489.006 583.609 446.942 579.645 406.135 573.553C341.637 563.885 273.464 545.707 208.289 547.544C186.048 548.124 164.485 554.796 142.341 557.31C129.673 558.76 116.232 558.663 104.048 555.473C128.513 542.033 153.654 529.464 180.924 523.469Z" fill="#470318"/>
</svg>