<svg viewBox="0 0 533 602" fill="none" xmlns="http://www.w3.org/2000/svg">
    <path d="M72.1374 595.695C88.963 600.723 100.664 596.952 118.069 594.535C156.072 589.217 194.075 583.899 232.077 578.581C251.417 591.731 280.524 592.698 303.925 591.828C312.531 591.538 321.137 591.054 329.647 590.474C361.364 588.443 392.888 584.866 424.218 579.645C441.044 586.22 466.862 579.355 482.818 570.75C498.773 562.144 514.245 551.412 532.231 549.478C486.782 530.527 439.013 502.488 389.89 506.065C369.196 507.612 348.793 513.124 328.099 513.607C303.248 514.284 278.88 507.806 254.415 503.455C195.138 492.916 133.735 494.463 75.135 508.096C50.2834 513.897 25.3351 521.825 0.290039 527.047V598.112C24.4648 602.56 48.8329 603.237 72.1374 595.695Z" fill="#C94331"/>
    <path d="M123.968 573.747C188.466 564.078 256.639 545.901 321.814 547.738C344.055 548.318 365.619 554.989 387.763 557.503C409.907 560.017 433.985 557.793 450.714 543.193C476.532 546.287 503.898 547.351 529.91 548.221C516.662 520.472 472.954 513.51 449.553 493.689C416.386 465.65 378.576 423.59 373.935 380.371C344.442 361.807 311.08 322.068 282.167 302.634C272.981 296.445 253.254 283.199 242.134 283.489C212.254 284.166 182.181 274.111 158.683 255.546C150.56 249.165 137.409 225.767 140.6 215.904C118.359 201.401 109.56 163.886 98.4395 139.714C89.5432 120.57 76.0053 93.4973 67.2057 74.2564C51.6372 71.9359 33.9413 58.5929 32.7809 42.9295C32.0073 31.8104 24.5615 13.7297 15.2784 7.63835C10.5401 4.64102 5.51178 2.12712 0.290039 0.193359V580.031C41.097 583.802 83.161 579.838 123.968 573.747Z" fill="#5F031B"/>
    <path d="M348.987 523.469C324.232 518.054 296.286 499.104 274.625 485.761C263.021 478.606 247.549 482.087 235.172 476.382C231.691 474.738 228.596 472.514 225.212 470.774C219.216 467.68 212.544 466.423 205.969 464.973C188.66 461.105 171.641 455.691 155.202 448.922C149.11 446.409 142.921 443.508 138.183 438.867C133.445 434.226 127.449 408.797 128.996 402.319C115.265 387.332 103.951 370.218 95.5386 351.654C89.0597 337.248 87.6092 306.888 82.871 291.804C72.8143 282.909 76.2955 266.376 70.5902 254.193C65.9487 244.234 55.7953 238.239 47.5759 230.988C39.3565 223.639 33.2644 208.266 38.0027 198.404C32.9743 161.179 27.946 123.857 23.0143 86.6325C19.6299 61.3002 16.1487 35.5812 7.15572 11.6026C5.80194 8.12179 4.35145 4.54435 2.80427 1.16027C1.83728 0.773516 0.966989 0.386752 0 0V579.838C40.9037 583.609 82.9677 579.645 123.775 573.553C188.273 563.885 256.446 545.707 321.621 547.544C343.861 548.124 365.425 554.796 387.569 557.31C400.237 558.76 413.678 558.663 425.862 555.473C401.397 542.033 376.256 529.464 348.987 523.469Z" fill="#470318"/>
</svg>