<svg viewBox="0 0 2199 719" fill="none" xmlns="http://www.w3.org/2000/svg">
    <path d="M1391.88 145.902H1.25684V145.999C113.234 150.737 334.771 160.212 598.663 171.525C1151.2 195.117 1889.4 226.733 2197 239.98V253.516C2058.62 260.574 1833.03 272.08 1576.39 285.23C990.294 315.3 242.327 353.878 1.25684 366.544V718.392H2198.26V234.082L1391.88 145.902Z" fill="#C94331"/>
    <path d="M2198.26 1.35364H1.25684V718.392H2198.26V1.35364Z" fill="#ED583B"/>
    <path d="M1968.89 89.0497L1291.99 59.2698C1292.09 59.1732 1292.19 59.0764 1292.19 58.9797C1293.06 58.1095 1293.83 57.2393 1294.7 56.2724C1295.19 55.6923 1295.67 55.2089 1296.25 54.6288C1297.31 53.4685 1298.28 52.4049 1299.25 51.2447C1299.73 50.6646 1300.21 50.0845 1300.7 49.601C1301.57 48.6342 1302.44 47.5705 1303.21 46.6036C1303.69 46.0235 1304.18 45.4434 1304.66 44.8633C1305.44 43.8964 1306.21 42.9295 1306.98 41.9627C1307.37 41.4792 1307.76 40.9958 1308.14 40.5123C1309.21 39.1587 1310.27 37.805 1311.24 36.4514C1311.72 35.8712 1312.11 35.1945 1312.59 34.6144C1313.27 33.6475 1313.94 32.7773 1314.62 31.8104C1315.01 31.2303 1315.49 30.6501 1315.88 29.9733C1316.65 28.813 1317.43 27.7495 1318.2 26.5892L1758.95 1.45032H1.25684V59.9466C191.754 59.1731 709.77 52.0182 927.052 48.9241L951.711 47.4738C952.098 47.8606 895 49.379 952.968 48.5374C824.5 96.398 1024.99 122.266 1080.5 122.266C1131.36 122.266 1204.77 148.416 1242.48 120.087L1292.19 59.2698C1291.8 59.6566 1291.41 60.0433 1291.03 60.43C1289.87 61.687 1288.61 62.944 1287.45 64.1042C1286.97 64.5877 1286.48 65.0711 1286 65.5546C1285.13 66.4248 1284.26 67.2949 1283.39 68.1651C1282.9 68.6485 1282.32 69.132 1281.84 69.6154C1280.58 70.7757 1279.33 72.0326 1278.07 73.1928C1277.68 73.5796 1277.2 73.9664 1276.81 74.3532C1275.85 75.2234 1274.88 76.0935 1273.81 76.9637C1273.23 77.4471 1272.75 77.9306 1272.17 78.3173C1271.11 79.2842 1269.95 80.1544 1268.88 81.1213C1268.5 81.5081 1268.01 81.7981 1267.63 82.1849C1266.37 83.2484 1265.11 84.2153 1263.76 85.2788C1263.18 85.6656 1262.69 86.1491 1262.11 86.5358C1261.05 87.3093 1259.99 88.1795 1259.02 88.953C1258.54 89.3398 1258.05 89.6298 1257.67 90.0166C1256.22 91.0801 1254.77 92.1438 1253.41 93.1107C1252.93 93.4974 1252.44 93.7875 1251.86 94.1742C1250.8 94.9477 1249.74 95.7212 1248.58 96.398C1248.09 96.7847 1247.51 97.0749 1247.03 97.4616C1245.58 98.4285 1244.03 99.4921 1242.48 100.459C1242.1 100.749 1241.71 100.942 1241.23 101.232C1240.07 102.006 1238.81 102.779 1237.55 103.553C1236.97 103.843 1236.49 104.23 1235.91 104.52C1234.56 105.39 1233.2 106.163 1231.75 106.937C1231.46 107.13 1231.17 107.324 1230.88 107.42C1229.33 108.291 1227.79 109.161 1226.24 110.031C1225.66 110.321 1225.18 110.611 1224.6 110.901C1223.34 111.578 1222.08 112.255 1220.73 112.932C1220.34 113.125 1219.86 113.415 1219.47 113.608C1217.83 114.479 1216.18 115.252 1214.54 116.026C1214.05 116.219 1213.57 116.509 1213.09 116.702C1211.83 117.283 1210.48 117.959 1209.22 118.54C1208.74 118.733 1208.16 119.023 1207.67 119.216C1207 119.507 1206.32 119.796 1205.64 120.087L1000.25 123.664L294.835 135.943L1.25684 102.006V145.902H1391.88L1968.89 89.0497Z" fill="#C94331"/>
    <path d="M2197 99.1052L1968.89 89.0496L1391.88 145.902L2198.26 234.082V66.5214L2197 66.618V99.1052Z" fill="#EA6E5E"/>
    <path d="M1931.95 437.61C2045.96 441.478 2138.4 444.572 2198.26 446.505V394.197L25.5283 372.442C371.904 385.398 1392.95 419.529 1931.95 437.61Z" fill="#C94331"/>
    <path d="M782.004 638.528L1593.31 496.783L1.25684 643.362V718.392H2198.26V717.135H1737.29L782.004 638.528Z" fill="#C94331"/>
    <path d="M2197 357.456V253.516C2058.62 260.574 1836.89 272.08 1580.35 285.23L2197 357.456Z" fill="#E37A76"/>
    <path d="M1606.75 283.876C1597.95 284.359 1589.15 284.746 1580.35 285.23L2197 357.456V301.763L1606.75 283.876Z" fill="#AA6465"/>
    <path d="M1576.39 285.23C1833.03 272.08 2058.62 260.574 2197 253.516V239.98C1889.4 226.733 1151.2 195.117 598.663 171.525L1576.39 285.23Z" fill="#FF833E"/>
    <path d="M1975.85 264.829L807.823 195.89L1576.39 285.326C1723.18 277.688 1859.81 270.727 1975.85 264.829Z" fill="#E87338"/>
    <path d="M1331.93 4.64105C1331.35 5.70462 1330.77 6.76811 1330.09 7.83167C1329.71 8.50849 1329.32 9.18528 1328.93 9.86209C1328.26 10.9257 1327.68 11.9892 1327 13.1495C1326.61 13.8263 1326.13 14.5999 1325.74 15.2767C1324.97 16.5336 1324.2 17.7905 1323.42 19.0474C1323.04 19.7242 1322.55 20.401 1322.16 20.9812C1321.49 21.948 1320.91 22.9149 1320.23 23.8818C1319.84 24.4619 1319.46 25.0421 1319.07 25.7189C1318.88 26.0089 1318.68 26.2991 1318.49 26.4924L1781.78 0H1334.35C1333.87 0.870189 1333.38 1.83711 1332.9 2.7073C1332.61 3.38411 1332.32 3.96424 1331.93 4.64105Z" fill="#EF763A"/>
    <path d="M1699.87 478.219L2198.26 452.693V446.602C2138.59 444.572 2047.7 441.574 1931.95 437.707L1699.87 478.219Z" fill="#F28F46"/>
    <path d="M782.004 638.528L1737.29 717.135L2198.26 718.392V452.693L1699.87 478.219L782.004 638.528Z" fill="#AA6465"/>
    <path d="M1931.95 437.61C1374.29 418.949 309.63 383.271 1.25684 371.475V562.724L1699.87 478.219L1931.95 437.61Z" fill="#FF833E"/>
    <path d="M1.54693 420.69L1.25684 562.724L1699.87 478.219L1816.97 457.721L1.54693 420.69Z" fill="#E87338"/>
    <path d="M598.663 171.525C333.805 160.212 111.591 150.737 0 145.902L1.25709 366.544C241.07 353.878 989.327 315.3 1576.39 285.23L598.663 171.525Z" fill="#E37A76"/>
    <path d="M0 229.731L1.25709 366.544C241.07 353.878 989.327 315.3 1576.39 285.23L1522.14 278.945C1119.19 265.795 211.964 236.306 0 229.731Z" fill="#AA6465"/>
    <path d="M497.93 45.9776C496.434 46.8322 494.938 47.6156 493.442 48.4703C492.695 48.8976 491.759 49.3249 491.012 49.8234C489.703 50.5356 488.394 51.1765 487.085 51.8887C486.15 52.3161 485.402 52.8146 484.467 53.2419C482.41 54.239 480.54 55.2361 478.484 56.2332C477.736 56.5893 476.988 56.9454 476.24 57.3015C474.744 58.0137 473.248 58.7259 471.752 59.4381C470.817 59.8654 469.882 60.2927 468.947 60.72C467.264 61.4322 465.768 62.2156 464.086 62.9278C463.151 63.3551 462.216 63.7825 461.281 64.1386C459.411 64.9932 457.354 65.8478 455.484 66.6312C454.549 67.0586 453.614 67.4146 452.493 67.8419C450.81 68.4829 449.314 69.1951 447.631 69.8361C447.444 69.9073 447.257 69.9785 447.257 70.0497L2197.26 99.3922V26.3922H1394.34L497.93 45.9776Z" fill="#F28F46"/>
    <path d="M2041.26 40.1497C2038.82 38.8117 2036.37 37.4737 2034.15 36.1357C2033.04 35.5623 2032.15 34.8932 2031.04 34.3198C2029.49 33.3641 2027.93 32.5041 2026.38 31.5483C2025.49 30.9749 2024.38 30.4014 2023.49 29.828C2021.27 28.49 2019.05 27.0564 2016.83 25.7184C2015.94 25.145 2015.05 24.5717 2014.17 23.9027C2012.61 22.9469 2011.28 21.9912 2009.72 21.0355C2008.84 20.3665 2007.73 19.6975 2006.84 19.1241C2005.06 17.8817 2003.29 16.6392 2001.51 15.3968C2000.62 14.7278 1999.51 13.9632 1998.62 13.2942C1997.07 12.2429 1995.73 11.1917 1994.18 10.0449C1993.29 9.37586 1992.4 8.70677 1991.52 8.03777C1990.18 6.98649 1988.85 5.93528 1987.3 4.884C1986.63 4.31057 1985.74 3.64155 1985.08 3.06813C1983.97 2.20799 1982.85 1.25223 1981.74 0.39209H0.256836V2.68582L2043.26 41.3921C2042.59 40.9142 2041.92 40.532 2041.26 40.1497Z" fill="#EF763A"/>
    <path d="M1865 122.98C1865 122.98 1864.82 122.98 1865 122.98C1862.11 122.628 1859.41 122.275 1856.89 121.863C1856.16 121.745 1855.44 121.686 1854.72 121.569C1851.47 121.098 1848.41 120.686 1845.16 120.216C1844.26 120.098 1843.18 119.922 1842.28 119.804C1839.93 119.451 1837.41 119.098 1835.06 118.686C1834.16 118.569 1833.26 118.392 1832.36 118.275C1829.29 117.804 1826.23 117.275 1823.16 116.804C1822.44 116.686 1821.54 116.51 1820.82 116.392C1818.47 115.98 1816.13 115.569 1813.61 115.157C1812.52 114.98 1811.62 114.804 1810.54 114.628C1807.65 114.098 1804.77 113.569 1801.88 113.039C1801.34 112.922 1800.8 112.804 1800.26 112.745C1797.74 112.275 1795.03 111.745 1792.51 111.275C1791.42 111.098 1790.52 110.863 1789.44 110.686C1787.1 110.216 1784.93 109.745 1782.59 109.275C1781.87 109.098 1781.15 108.98 1780.42 108.804C1777.54 108.216 1774.83 107.628 1771.95 106.98C1771.05 106.745 1769.96 106.569 1769.06 106.333C1767.08 105.863 1764.92 105.392 1762.93 104.98C1762.03 104.745 1761.13 104.569 1760.05 104.333C1757.34 103.686 1754.64 103.098 1752.11 102.451C1751.21 102.216 1750.31 102.039 1749.59 101.804C1747.6 101.333 1745.62 100.804 1743.64 100.333C1742.55 100.098 1741.65 99.804 1740.57 99.5687C1738.23 98.9216 1735.7 98.3334 1733.36 97.6863C1732.64 97.451 1731.73 97.2746 1731.01 97.0393C1729.03 96.451 1726.87 95.9216 1724.88 95.3334C1723.8 95.0392 1722.9 94.7451 1721.82 94.5098C1720.01 93.9804 1718.03 93.451 1716.23 92.9216C1715.5 92.6863 1714.6 92.451 1713.88 92.2158C1711.54 91.5099 1709.19 90.8039 1706.85 90.0392C1705.95 89.7451 1704.86 89.451 1703.96 89.1569C1702.34 88.6275 1700.72 88.0981 1699.09 87.5687C1698.19 87.2746 1697.29 86.9804 1696.39 86.6863C1694.04 85.9216 1691.88 85.2157 1689.72 84.451C1688.81 84.1569 1688.09 83.8628 1687.19 83.5686C1685.57 83.0392 1684.13 82.5099 1682.5 81.9216C1681.6 81.5687 1680.7 81.2745 1679.8 80.9216C1677.81 80.2157 1676.01 79.5098 1674.03 78.8039C1673.67 78.6863 1673.31 78.5687 1672.95 78.3922L0 109.569L549.473 130.392L1865 122.98Z" fill="#FF833E"/>
    <path d="M0 101.909V141.261L294.642 136.137L0 101.909Z" fill="#F28F46"/>
    <path d="M782.004 638.528L1.25684 718.392L1737.29 717.135L782.004 638.528Z" fill="#825154"/>
    <path d="M1263.95 29.6832L983.622 45.7335L1233.98 56.7557C1244.71 48.634 1254.77 39.5454 1263.95 29.6832Z" fill="#F28F46"/>
    <path d="M1737.29 584.963L1001.8 656.608L1737.29 717.135L2198.26 718.392V532.461L1737.29 584.963Z" fill="#825154"/>
    <path d="M667.126 717.909L1737.29 717.135L1001.8 656.608C1001.8 656.608 826.389 688.902 667.126 717.909Z" fill="#60393D"/>
</svg>