<svg width="2238" height="2233" viewBox="0 0 2238 2233" fill="none" xmlns="http://www.w3.org/2000/svg">
    <path opacity="0.11" d="M1118.61 2232.72C1736.41 2232.72 2237.23 1732.91 2237.23 1116.36C2237.23 499.811 1736.41 0 1118.61 0C500.82 0 0 499.811 0 1116.36C0 1732.91 500.82 2232.72 1118.61 2232.72Z" fill="#F28F46"/>
    <path opacity="0.21" d="M1118.61 2120.47C1674.3 2120.47 2124.77 1670.91 2124.77 1116.36C2124.77 561.808 1674.3 112.255 1118.61 112.255C562.931 112.255 112.461 561.808 112.461 1116.36C112.461 1670.91 562.931 2120.47 1118.61 2120.47Z" fill="#F28F46"/>
    <path opacity="0.21" d="M1118.61 2000.86C1608.13 2000.86 2004.96 1604.86 2004.96 1116.36C2004.96 627.863 1608.13 231.858 1118.61 231.858C629.1 231.858 232.271 627.863 232.271 1116.36C232.271 1604.86 629.1 2000.86 1118.61 2000.86Z" fill="#F28F46"/>
    <path opacity="0.21" d="M1118.61 1915.39C1560.81 1915.39 1919.28 1557.65 1919.28 1116.36C1919.28 675.068 1560.81 317.33 1118.61 317.33C676.417 317.33 317.946 675.068 317.946 1116.36C317.946 1557.65 676.417 1915.39 1118.61 1915.39Z" fill="#F28F46"/>
    <path opacity="0.21" d="M1118.61 1798.98C1496.4 1798.98 1802.66 1493.36 1802.66 1116.36C1802.66 739.361 1496.4 433.743 1118.61 433.743C740.824 433.743 434.565 739.361 434.565 1116.36C434.565 1493.36 740.824 1798.98 1118.61 1798.98Z" fill="#F28F46"/>
    <path opacity="0.21" d="M1118.61 1704.42C1444.07 1704.42 1707.9 1441.13 1707.9 1116.36C1707.9 791.585 1444.07 528.303 1118.61 528.303C793.161 528.303 529.33 791.585 529.33 1116.36C529.33 1441.13 793.161 1704.42 1118.61 1704.42Z" fill="#F28F46"/>
    <path opacity="0.21" d="M1118.61 1618.94C1396.75 1618.94 1622.22 1393.93 1622.22 1116.36C1622.22 838.79 1396.75 613.776 1118.61 613.776C840.478 613.776 615.005 838.79 615.005 1116.36C615.005 1393.93 840.478 1618.94 1118.61 1618.94Z" fill="#F28F46"/>
    <path opacity="0.21" d="M1118.61 1560.35C1364.33 1560.35 1563.52 1361.57 1563.52 1116.36C1563.52 871.15 1364.33 672.369 1118.61 672.369C872.895 672.369 673.701 871.15 673.701 1116.36C673.701 1361.57 872.895 1560.35 1118.61 1560.35Z" fill="#F28F46"/>
    <path opacity="0.21" d="M1118.61 1464.53C1311.3 1464.53 1467.5 1308.65 1467.5 1116.36C1467.5 924.069 1311.3 768.187 1118.61 768.187C925.927 768.187 769.724 924.069 769.724 1116.36C769.724 1308.65 925.927 1464.53 1118.61 1464.53Z" fill="#F28F46"/>
    <path d="M1118.61 1380.12C1264.57 1380.12 1382.89 1262.03 1382.89 1116.36C1382.89 970.687 1264.57 852.595 1118.61 852.595C972.656 852.595 854.335 970.687 854.335 1116.36C854.335 1262.03 972.656 1380.12 1118.61 1380.12Z" fill="#FAFF3B"/>
</svg>