<svg viewBox="0 0 1437 266" fill="none" xmlns="http://www.w3.org/2000/svg">
    <path opacity="0.6" d="M4.89996 101.3C20.6 101.3 35.5 105.2 48.5 112.1C71.5 72.6 114.3 46 163.3 46C205.1 46 242.4 65.4 266.7 95.6C276 92.9 285.8 91.4 295.9 91.4C337.7 91.4 373.6 116.3 389.8 152H-78C-62.5 121.9 -31.2 101.3 4.89996 101.3Z" fill="white"/>
    <path opacity="0.6" d="M567.9 215.3C583.6 215.3 598.5 219.2 611.5 226.1C634.5 186.6 677.3 160 726.3 160C768.1 160 805.4 179.4 829.7 209.6C839 206.9 848.8 205.4 858.9 205.4C900.7 205.4 936.6 230.3 952.8 266H485C500.5 235.9 531.8 215.3 567.9 215.3Z" fill="white"/>
    <path opacity="0.6" d="M1068.9 55.3C1084.6 55.3 1099.5 59.2 1112.5 66.1C1135.5 26.6 1178.3 0 1227.3 0C1269.1 0 1306.4 19.4 1330.7 49.6C1340 46.9 1349.8 45.4 1359.9 45.4C1401.7 45.4 1437.6 70.3 1453.8 106H986C1001.5 75.9 1032.8 55.3 1068.9 55.3Z" fill="white"/>
</svg>