<svg viewBox="0 0 1920 72" fill="none" xmlns="http://www.w3.org/2000/svg">
    <path d="M-95 4.99993L-15.7474 20.9499C40.0956 20.4562 68.71 23.1988 111.937 36.8999C215.88 40.9491 264.956 33.9735 351.897 20.9499C469.747 -3.05573 528.639 16.0952 636.619 36.8999C714.956 39.1516 748.826 30.1846 800.261 4.99993C846.706 -1.08835 872.183 -5.17404 945.557 20.9499C986.037 33.9193 1016.36 28.3741 1078.38 4.99993C1123.73 22.1958 1150.57 27.5571 1203.86 20.9499C1271.15 9.41196 1302.27 14.1228 1349.16 36.8999C1450.99 42.9501 1495.14 40.0248 1512.8 4.99993C1556.57 24.8501 1589.46 28.0666 1661.03 20.9499C1731.51 27.0424 1767.47 26.9822 1809.26 4.99993C1871.93 4.4136 1897.97 7.38036 1921.54 20.9499L2014 4.99993V71.5H-95V4.99993Z" fill="#39193C"/>
</svg>
