<svg viewBox="0 0 3303 3303" fill="none" xmlns="http://www.w3.org/2000/svg">
    <path d="M1652 1809C1738.71 1809 1809 1738.71 1809 1652C1809 1565.29 1738.71 1495 1652 1495C1565.29 1495 1495 1565.29 1495 1652C1495 1738.71 1565.29 1809 1652 1809Z" fill="#F28F46" fill-opacity="0.1"/>
    <path d="M1652 1961C1822.66 1961 1961 1822.66 1961 1652C1961 1481.34 1822.66 1343 1652 1343C1481.34 1343 1343 1481.34 1343 1652C1343 1822.66 1481.34 1961 1652 1961Z" fill="#F28F46" fill-opacity="0.1"/>
    <path d="M1652 2121C1911.02 2121 2121 1911.02 2121 1652C2121 1392.98 1911.02 1183 1652 1183C1392.98 1183 1183 1392.98 1183 1652C1183 1911.02 1392.98 2121 1652 2121Z" fill="#F28F46" fill-opacity="0.1"/>
    <path d="M1651.5 2290C2004.13 2290 2290 2004.13 2290 1651.5C2290 1298.87 2004.13 1013 1651.5 1013C1298.87 1013 1013 1298.87 1013 1651.5C1013 2004.13 1298.87 2290 1651.5 2290Z" fill="#F28F46" fill-opacity="0.1"/>
    <path d="M1651.5 2459C2097.47 2459 2459 2097.47 2459 1651.5C2459 1205.53 2097.47 844 1651.5 844C1205.53 844 844 1205.53 844 1651.5C844 2097.47 1205.53 2459 1651.5 2459Z" fill="#F28F46" fill-opacity="0.1"/>
    <path d="M1652 2628C2191.03 2628 2628 2191.03 2628 1652C2628 1112.97 2191.03 676 1652 676C1112.97 676 676 1112.97 676 1652C676 2191.03 1112.97 2628 1652 2628Z" fill="#F28F46" fill-opacity="0.1"/>
    <path d="M1651.5 2933C2359.25 2933 2933 2359.25 2933 1651.5C2933 943.747 2359.25 370 1651.5 370C943.747 370 370 943.747 370 1651.5C370 2359.25 943.747 2933 1651.5 2933Z" fill="#F28F46" fill-opacity="0.1"/>
    <path d="M1651.5 3303C2563.6 3303 3303 2563.6 3303 1651.5C3303 739.402 2563.6 0 1651.5 0C739.402 0 0 739.402 0 1651.5C0 2563.6 739.402 3303 1651.5 3303Z" fill="#F28F46" fill-opacity="0.1"/>
</svg>