<svg viewBox="0 0 42 42" fill="none" xmlns="http://www.w3.org/2000/svg">
    <path d="M21.4712 23.2038L29.7639 28.9701V17.4915L26.096 20.0179L21.4712 23.2038Z" fill="white"/>
    <path d="M20.5954 0C9.22123 0 0 9.21974 0 20.5942C0 31.9687 9.22123 41.19 20.5954 41.19C31.9688 41.19 41.19 31.9687 41.19 20.5942C41.19 9.21974 31.9688 0 20.5954 0ZM30.2695 29.9311V29.9317H10.9189H10.1909C9.06625 29.9317 8.14592 29.0114 8.14592 27.8866V13.9172C8.14592 12.7924 9.06616 11.8722 10.1909 11.8722L10.1989 11.8782L10.1909 11.8716H31.0596C32.1843 11.8716 33.1045 12.7918 33.1045 13.9165V14.5093L33.1051 14.5088L33.1045 14.5094L33.1079 27.8884C33.0591 29.3755 32.4147 29.9062 30.2695 29.9311Z" fill="white"/>
    <path d="M20.5911 23.7024C20.4911 23.7024 20.3911 23.6723 20.3051 23.6126L20.1558 23.5086L11.6387 29.4311H29.5496L21.0302 23.5071C21.0302 23.5071 20.6903 23.7024 20.5911 23.7024Z" fill="white"/>
    <path d="M29.536 12.3722H11.7065L20.5921 18.9604L29.536 12.3722Z" fill="white"/>
    <path d="M19.7094 23.1979L11.4246 17.4912L11.4199 28.9737L19.7176 23.2038L19.7094 23.1979Z" fill="white"/>
</svg>