<svg viewBox="0 0 39 39" fill="none" xmlns="http://www.w3.org/2000/svg">
    <path d="M19.5 3.25C28.4603 3.25 35.75 10.5398 35.75 19.5C35.75 28.4603 28.4603 35.75 19.5 35.75C10.5398 35.75 3.25 28.4603 3.25 19.5C3.25 10.5398 10.5398 3.25 19.5 3.25ZM19.5 0C8.73112 0 0 8.73112 0 19.5C0 30.2689 8.73112 39 19.5 39C30.2689 39 39 30.2689 39 19.5C39 8.73112 30.2689 0 19.5 0ZM19.5 9.75C14.1164 9.75 9.75 14.1147 9.75 19.5C9.75 23.8079 12.5434 27.4625 16.419 28.7511C16.9065 28.8421 17.0625 28.5399 17.0625 28.2815V26.4664C14.3504 27.0563 13.7849 25.3175 13.7849 25.3175C13.3429 24.1914 12.7026 23.8907 12.7026 23.8907C11.8186 23.2846 12.7692 23.2976 12.7692 23.2976C13.7491 23.3659 14.2642 24.3035 14.2642 24.3035C15.1336 25.7936 16.5441 25.363 17.1015 25.1144C17.1893 24.4839 17.4411 24.0549 17.7206 23.8111C15.5545 23.5641 13.2795 22.7272 13.2795 18.993C13.2795 17.9286 13.6597 17.0592 14.2837 16.3768C14.183 16.1281 13.8482 15.1353 14.378 13.793C14.378 13.793 15.197 13.5314 17.0592 14.7924C17.8376 14.5762 18.6712 14.469 19.5 14.4641C20.3288 14.4674 21.1624 14.5762 21.9424 14.7924C23.8046 13.5314 24.6204 13.793 24.6204 13.793C25.1518 15.1353 24.817 16.1281 24.7179 16.3735C25.3435 17.056 25.7205 17.9254 25.7205 18.9897C25.7205 22.7354 23.439 23.5592 21.268 23.7997C21.619 24.102 21.9375 24.6951 21.9375 25.6051V28.2799C21.9375 28.5399 22.0935 28.8438 22.5875 28.7479C26.4599 27.4592 29.25 23.8062 29.25 19.5C29.25 14.1147 24.8836 9.75 19.5 9.75Z" fill="white"/>
</svg>