<svg viewBox="0 0 46 46" fill="none" xmlns="http://www.w3.org/2000/svg">
    <path fill-rule="evenodd" clip-rule="evenodd" d="M34.9028 33.0492V25.0082C34.9028 20.6999 32.6028 18.6952 29.5366 18.6952C27.0622 18.6952 25.9534 20.0566 25.3355 21.0116V19.0247H20.6737C20.7355 20.3409 20.6737 33.0492 20.6737 33.0492H25.3355V25.2169C25.3355 24.7987 25.3657 24.3799 25.4893 24.0806C25.8257 23.243 26.5926 22.3759 27.8799 22.3759C29.5675 22.3759 30.2417 23.6618 30.2417 25.5464V33.0499H34.9028V33.0492ZM15.7627 17.1106C17.3878 17.1106 18.4005 16.0327 18.4005 14.6863C18.3703 13.3111 17.3878 12.2641 15.7936 12.2641C14.1994 12.2641 13.1565 13.3104 13.1565 14.6863C13.1565 16.0327 14.1685 17.1106 15.7332 17.1106H15.7627ZM23.3431 43.9402C11.9681 43.9402 2.74609 34.7183 2.74609 23.3432C2.74609 11.9675 11.9681 2.74622 23.3431 2.74622C34.7182 2.74622 43.9401 11.9675 43.9401 23.3432C43.9401 34.7183 34.7182 43.9402 23.3431 43.9402ZM18.0936 33.0492V19.0247H13.4325V33.0492H18.0936Z" fill="white"/>
</svg>