<svg viewBox="0 0 42 42" fill="none" xmlns="http://www.w3.org/2000/svg">
    <path fill-rule="evenodd" clip-rule="evenodd" d="M41.19 20.595C41.19 31.9693 31.9693 41.19 20.595 41.19C9.22069 41.19 0 31.9693 0 20.595C0 9.22069 9.22069 0 20.595 0C31.9693 0 41.19 9.22069 41.19 20.595ZM6.59653 8.45784C6.57151 8.47638 6.55273 13.7468 6.55273 20.1665V31.8318H13.3104H18.9072V31.8327H20.4695H22.0318L22.0443 21.8462L22.0631 11.8658L24.6252 11.8473C27.4249 11.8288 27.9623 11.872 28.6435 12.1806C28.8247 12.2609 28.9872 12.3287 29.0059 12.3287C29.0559 12.3287 29.4746 12.6435 29.7371 12.8842C30.6557 13.7175 31.1244 15.2358 30.8932 16.6246C30.7432 17.4948 30.3058 18.396 29.7933 18.8836C29.5934 19.0749 28.7872 19.6119 28.6997 19.6119C28.6685 19.6119 28.556 19.6551 28.4497 19.7045C28.0123 19.902 27.6561 19.9328 25.4564 19.9637L23.2192 19.9946V20.7661V21.5314L23.4379 21.8215C23.5566 21.982 23.6941 22.1548 23.7379 22.2042C23.7816 22.2536 23.8816 22.3832 23.9628 22.4943C24.0378 22.6054 24.1503 22.7535 24.219 22.8338C24.3628 23.0066 24.669 23.3892 24.9689 23.7843C25.0325 23.8668 25.1157 23.9724 25.1947 24.0725C25.2633 24.1595 25.3287 24.2425 25.3751 24.3027C25.4814 24.4323 25.6751 24.6792 25.8126 24.8582C26.4313 25.6606 26.9062 26.2531 26.9937 26.3519C27.0437 26.4074 27.1624 26.5679 27.2562 26.7099C27.3499 26.8457 27.4436 26.9568 27.4624 26.9568C27.4874 26.9568 27.5561 27.0493 27.6249 27.1543C27.6873 27.2654 27.7936 27.4135 27.8623 27.4814C27.9561 27.5801 29.4309 29.4565 30.2995 30.586C30.8432 31.2958 30.9494 31.4316 31.1244 31.6229L31.3119 31.8327L33.3741 31.8204L35.4364 31.8019L35.2801 31.6414C35.1926 31.555 35.0552 31.3884 34.9739 31.2711C34.8927 31.1538 34.7864 31.018 34.7427 30.9686C34.6115 30.8267 34.2115 30.3267 33.9865 30.0305C33.8741 29.8824 33.5366 29.4565 33.2366 29.08C32.9931 28.7805 32.6468 28.3445 32.3769 28.0046C32.3075 27.9172 32.2431 27.8361 32.1868 27.7653C31.9118 27.4135 31.5056 26.9012 31.2806 26.6235C31.1305 26.434 30.8746 26.1126 30.6188 25.7913C30.4913 25.6311 30.3639 25.471 30.2495 25.3273C30.0963 25.1347 29.9169 24.9089 29.7448 24.6921C29.5308 24.4227 29.3278 24.1672 29.1997 24.0065C28.9684 23.7102 28.7435 23.4263 28.6997 23.3769C28.6779 23.3492 28.6498 23.3137 28.6217 23.2783C28.5936 23.2428 28.5654 23.2072 28.5435 23.1794C28.4747 23.093 28.5247 23.0621 29.0122 22.914C29.5496 22.7535 30.2183 22.5005 30.4057 22.3894C30.4557 22.3585 30.5932 22.2906 30.6995 22.2412C30.8119 22.1918 30.9369 22.1178 30.9807 22.0808C31.0063 22.059 31.0772 22.0054 31.1655 21.9386C31.2276 21.8916 31.2984 21.838 31.3681 21.7845C31.8993 21.3895 32.6305 20.618 32.9492 20.1118C33.2491 19.6427 33.6553 18.7293 33.8428 18.1182C34.2428 16.7912 34.2428 15.0815 33.8428 13.6558C33.7366 13.2793 33.6116 12.8904 33.5616 12.7917C33.5439 12.7492 33.5149 12.6854 33.4813 12.6115C33.4319 12.5029 33.3725 12.3722 33.3241 12.2547C33.0867 11.7239 32.518 10.9277 32.0368 10.4462C31.5619 9.97099 31.1307 9.613 31.0432 9.613C31.0119 9.613 30.9494 9.5698 30.9057 9.51425C30.8557 9.46487 30.737 9.37846 30.6307 9.33525C30.5245 9.28588 30.3933 9.21799 30.3433 9.18712C29.9371 8.93406 28.8872 8.60694 28.1373 8.50819C27.8248 8.46498 26.0688 8.44029 23.2754 8.44029H18.9072V8.44252L13.3042 8.42695C9.63751 8.42077 6.61531 8.43313 6.59653 8.45784ZM18.9072 11.8129H14.906H9.80645V15.1185V18.4241H14.8122H18.9072V11.8129ZM18.9072 21.7947L14.7996 21.81L9.80645 21.8224V25.128V28.4336H14.9373H18.9072V21.7947Z" fill="white"/>
</svg>