<svg viewBox="0 0 41 41" fill="none" xmlns="http://www.w3.org/2000/svg">
    <path fill-rule="evenodd" clip-rule="evenodd" d="M23.3475 12.4934C21.5578 13.1446 20.4269 14.8242 20.5554 16.6624L20.5984 17.3717L19.8823 17.2849C17.2767 16.9521 14.9998 15.8233 13.0667 13.9263L12.1217 12.9854L11.8784 13.6803C11.3631 15.2295 11.6925 16.8654 12.766 17.9655C13.3387 18.5737 13.2095 18.6605 12.2221 18.2983C11.8784 18.1828 11.5777 18.096 11.549 18.1391C11.4492 18.2409 11.7923 19.5577 12.0643 20.0791C12.4367 20.8034 13.1952 21.512 14.0261 21.9323L14.7279 22.2651L13.8976 22.2794C13.0961 22.2794 13.0674 22.2937 13.1535 22.5985C13.4398 23.5395 14.5707 24.5385 15.8308 24.9731L16.7184 25.2765L15.9456 25.7398C14.8003 26.4067 13.4542 26.7826 12.108 26.8106C11.4629 26.8249 10.9333 26.883 10.9333 26.9267C10.9333 27.0709 12.6806 27.8814 13.6967 28.2005C16.7465 29.1414 20.3695 28.7355 23.0898 27.129C25.023 25.9851 26.9555 23.7123 27.8581 21.5113C28.3454 20.3394 28.8319 18.1965 28.8319 17.1694C28.8319 16.5032 28.8749 16.4164 29.6765 15.6203C30.1494 15.157 30.5928 14.6507 30.6789 14.5058C30.8224 14.2304 30.8074 14.2304 30.0776 14.4764C28.8606 14.911 28.6884 14.8529 29.2904 14.2017C29.7339 13.7384 30.2642 12.8986 30.2642 12.6526C30.2642 12.6096 30.0496 12.6813 29.8056 12.8118C29.548 12.9567 28.9754 13.174 28.5456 13.3038L27.7727 13.5505L27.0709 13.0722C26.6842 12.8118 26.1409 12.5221 25.8539 12.4353C25.1234 12.233 24.0062 12.2617 23.3475 12.4934ZM20.5 41C9.17853 41 0 31.8215 0 20.5C0 9.17785 9.17853 0 20.5 0C31.8215 0 41 9.17785 41 20.5C41 31.8215 31.8215 41 20.5 41Z" fill="white"/>
</svg>