<svg viewBox="0 0 42 42" fill="none" xmlns="http://www.w3.org/2000/svg">
    <path fill-rule="evenodd" clip-rule="evenodd" d="M0 20.595C0 31.9676 9.22244 41.19 20.595 41.19C31.9676 41.19 41.19 31.9676 41.19 20.595C41.19 9.22244 31.9676 0 20.595 0C9.22244 0 0 9.22244 0 20.595ZM31.2837 11.5332C32.4618 11.8503 33.3885 12.7812 33.7016 13.9675C34.27 16.1135 34.27 20.595 34.27 20.595C34.27 20.595 34.27 25.0764 33.6975 27.2224C33.3844 28.4087 32.4577 29.3396 31.2796 29.6568C29.1501 30.2334 20.5949 30.2334 20.5949 30.2334C20.5949 30.2334 12.0439 30.2334 9.91025 29.6568C8.73222 29.3396 7.80544 28.4087 7.4924 27.2224C6.91986 25.0764 6.91986 20.595 6.91986 20.595C6.91986 20.595 6.91986 16.1135 7.49652 13.9675C7.80956 12.7812 8.73634 11.8503 9.91437 11.5332C12.0439 10.9565 20.5991 10.9565 20.5991 10.9565C20.5991 10.9565 29.1501 10.9565 31.2837 11.5332ZM17.7981 16.5295V24.6604L24.9446 20.595L17.7981 16.5295Z" fill="white"/>
</svg>