<svg width="1080" height="1080" viewBox="0 0 1080 1080" fill="none" xmlns="http://www.w3.org/2000/svg">
    <g clip-path="url(#clip0)">
        <path opacity="0.11" d="M533 1188C833.998 1188 1078 943.996 1078 643C1078 342.005 833.998 98 533 98C232.005 98 -12 342.005 -12 643C-12 943.996 232.005 1188 533 1188Z" fill="#F28F46"/>
        <path opacity="0.21" d="M532.999 1133.2C803.731 1133.2 1023.2 913.731 1023.2 643C1023.2 372.271 803.731 152.802 532.999 152.802C262.265 152.802 42.791 372.271 42.791 643C42.791 913.731 262.265 1133.2 532.999 1133.2Z" fill="#F28F46"/>
        <path opacity="0.21" d="M533 1074.81C771.494 1074.81 964.833 881.483 964.833 643C964.833 404.519 771.494 211.192 533 211.192C294.504 211.192 101.164 404.519 101.164 643C101.164 881.483 294.504 1074.81 533 1074.81Z" fill="#F28F46"/>
        <path opacity="0.21" d="M532.999 1033.08C748.443 1033.08 923.092 858.438 923.092 643C923.092 427.564 748.443 252.919 532.999 252.919C317.557 252.919 142.906 427.564 142.906 643C142.906 858.438 317.557 1033.08 532.999 1033.08Z" fill="#F28F46"/>
        <path opacity="0.21" d="M533 976.248C717.066 976.248 866.276 827.049 866.276 643C866.276 458.952 717.066 309.75 533 309.75C348.937 309.75 199.725 458.952 199.725 643C199.725 827.049 348.937 976.248 533 976.248Z" fill="#F28F46"/>
        <path opacity="0.21" d="M533.001 930.086C691.567 930.086 820.105 801.553 820.105 643C820.105 484.447 691.567 355.915 533.001 355.915C374.438 355.915 245.896 484.447 245.896 643C245.896 801.553 374.438 930.086 533.001 930.086Z" fill="#F28F46"/>
        <path opacity="0.21" d="M533 888.357C668.511 888.357 778.364 778.508 778.364 643C778.364 507.492 668.511 397.641 533 397.641C397.49 397.641 287.637 507.492 287.637 643C287.637 778.508 397.49 888.357 533 888.357Z" fill="#F28F46"/>
        <path opacity="0.21" d="M533 859.754C652.717 859.754 749.765 762.712 749.765 643C749.765 523.29 652.717 426.246 533 426.246C413.284 426.246 316.234 523.29 316.234 643C316.234 762.712 413.284 859.754 533 859.754Z" fill="#F28F46"/>
        <path opacity="0.21" d="M533.001 812.977C626.878 812.977 702.985 736.875 702.985 643C702.985 549.125 626.878 473.024 533.001 473.024C439.121 473.024 363.018 549.125 363.018 643C363.018 736.875 439.121 812.977 533.001 812.977Z" fill="#F28F46"/>
        <path d="M533 771.766C604.112 771.766 661.757 714.114 661.757 643C661.757 571.883 604.112 514.232 533 514.232C461.888 514.232 404.24 571.883 404.24 643C404.24 714.114 461.888 771.766 533 771.766Z" fill="#FAFF3B"/>
        <g opacity="0.8">
            <path opacity="0.8" d="M683.828 849.473H0.617188V849.612C55.6313 856.364 164.472 869.871 294.122 885.995C565.583 919.623 928.26 964.69 1079.38 983.569V1002.87C1011.4 1012.93 900.559 1029.33 774.474 1048.07C486.529 1090.93 119.055 1145.92 0.617188 1163.97V1665.49H1080V975.164L683.828 849.473Z" fill="#C94331"/>
            <path opacity="0.8" d="M1080 643.436H0.617188V1665.49H1080V643.436Z" fill="#ED583B"/>
            <path opacity="0.8" d="M967.31 768.437L634.754 725.988C634.8 725.851 634.85 725.713 634.85 725.574C635.279 724.335 635.657 723.095 636.085 721.717C636.322 720.889 636.559 720.201 636.847 719.373C637.366 717.72 637.84 716.204 638.319 714.551C638.556 713.723 638.793 712.896 639.03 712.207C639.458 710.829 639.887 709.313 640.265 707.934C640.502 707.108 640.739 706.281 640.976 705.453C641.359 704.076 641.737 702.698 642.116 701.319C642.307 700.631 642.499 699.94 642.69 699.252C643.21 697.322 643.734 695.392 644.208 693.463C644.445 692.637 644.637 691.672 644.874 690.845C645.206 689.468 645.539 688.226 645.872 686.848C646.063 686.022 646.3 685.195 646.487 684.23C646.87 682.576 647.248 681.06 647.626 679.407L864.171 643.573H0.617188V726.953C94.2078 725.851 348.709 715.653 455.459 711.242L467.574 709.175C467.764 709.726 439.711 711.891 468.191 710.691C405.075 778.911 503.578 815.782 530.848 815.782C555.837 815.782 591.902 853.056 610.432 812.676L634.85 725.988C634.658 726.539 634.467 727.092 634.28 727.643C633.711 729.434 633.09 731.226 632.521 732.88C632.284 733.568 632.047 734.258 631.81 734.947C631.381 736.188 630.953 737.427 630.524 738.669C630.287 739.357 630.005 740.046 629.768 740.736C629.148 742.389 628.532 744.181 627.912 745.835C627.721 746.386 627.484 746.937 627.297 747.488C626.818 748.729 626.344 749.969 625.825 751.21C625.537 751.899 625.3 752.587 625.013 753.138C624.494 754.517 623.924 755.758 623.4 757.135C623.208 757.686 622.971 758.1 622.784 758.651C622.164 760.167 621.549 761.545 620.884 763.061C620.596 763.612 620.359 764.303 620.072 764.854C619.553 765.956 619.028 767.195 618.554 768.299C618.317 768.851 618.08 769.264 617.889 769.816C617.178 771.331 616.462 772.847 615.796 774.224C615.559 774.777 615.322 775.189 615.04 775.74C614.516 776.844 613.991 777.946 613.421 778.911C613.184 779.462 612.902 779.876 612.665 780.427C611.949 781.806 611.188 783.322 610.432 784.699C610.24 785.112 610.048 785.389 609.811 785.801C609.242 786.905 608.627 788.007 608.006 789.109C607.724 789.523 607.487 790.074 607.2 790.488C606.534 791.727 605.869 792.829 605.158 793.933C605.016 794.208 604.87 794.485 604.729 794.622C603.968 795.863 603.211 797.103 602.45 798.344C602.163 798.756 601.926 799.17 601.643 799.584C601.023 800.548 600.408 801.513 599.742 802.478C599.551 802.753 599.314 803.167 599.122 803.443C598.316 804.682 597.509 805.785 596.702 806.889C596.465 807.163 596.223 807.577 595.986 807.852C595.371 808.679 594.706 809.644 594.085 810.472C593.848 810.746 593.566 811.16 593.329 811.437C592.996 811.849 592.664 812.262 592.331 812.676L491.422 817.775L144.851 835.278L0.617188 786.905V849.473H683.828L967.31 768.437Z" fill="#C94331"/>
            <path opacity="0.8" d="M1079.38 782.769L967.31 768.437L683.828 849.473L1080 975.164V736.325L1079.38 736.462V782.769Z" fill="#EA6E5E"/>
            <path opacity="0.8" d="M1079.38 1151.02V1002.87C1011.4 1012.93 902.461 1029.33 776.426 1048.07L1079.38 1151.02Z" fill="#E37A76"/>
            <path opacity="0.8" d="M789.394 1046.14C785.073 1046.83 780.747 1047.38 776.426 1048.07L1079.38 1151.02V1071.64L789.394 1046.14Z" fill="#AA6465"/>
            <path opacity="0.8" d="M774.473 1048.07C900.559 1029.33 1011.4 1012.93 1079.38 1002.87V983.57C928.259 964.69 565.582 919.623 294.121 885.995L774.473 1048.07Z" fill="#FF833E"/>
            <path opacity="0.8" d="M970.729 1018.99L396.881 920.725L774.473 1048.21C846.594 1037.32 913.719 1027.4 970.729 1018.99Z" fill="#E87338"/>
            <path opacity="0.8" d="M654.378 648.121C654.091 649.637 653.804 651.153 653.471 652.669C653.284 653.634 653.093 654.599 652.901 655.564C652.568 657.08 652.286 658.596 651.953 660.249C651.762 661.214 651.525 662.316 651.333 663.281C650.955 665.073 650.577 666.864 650.194 668.656C650.007 669.621 649.77 670.586 649.578 671.412C649.246 672.79 648.958 674.169 648.626 675.548C648.439 676.373 648.247 677.201 648.056 678.166C647.965 678.579 647.869 678.993 647.773 679.268L875.385 641.506H655.563C655.326 642.746 655.089 644.124 654.852 645.366C654.706 646.331 654.565 647.156 654.378 648.121Z" fill="#EF763A"/>
            <path opacity="0.8" d="M294.122 885.995C163.998 869.871 54.8244 856.364 0 849.473L0.617607 1163.97C118.437 1145.92 486.054 1090.93 774.474 1048.07L294.122 885.995Z" fill="#E37A76"/>
            <path opacity="0.8" d="M0 968.961L0.617607 1163.97C118.437 1145.92 486.054 1090.93 774.474 1048.07L747.822 1039.11C549.857 1020.37 104.138 978.333 0 968.961Z" fill="#AA6465"/>
            <path opacity="0.8" d="M244.632 707.041C243.897 708.26 243.162 709.377 242.427 710.596C242.059 711.204 241.6 711.814 241.233 712.524C240.59 713.54 239.947 714.453 239.303 715.468C238.844 716.076 238.476 716.787 238.017 717.398C237.007 718.818 236.088 720.239 235.078 721.659C234.71 722.169 234.343 722.676 233.975 723.183C233.24 724.197 232.505 725.214 231.771 726.228C231.311 726.838 230.852 727.447 230.393 728.055C229.566 729.071 228.831 730.187 228.004 731.203C227.545 731.812 227.086 732.422 226.626 732.929C225.708 734.147 224.697 735.364 223.778 736.481C223.319 737.09 222.859 737.599 222.308 738.207C221.481 739.121 220.747 740.137 219.92 741.05C219.828 741.151 219.736 741.252 219.736 741.354L1079.51 783.179V679.125H685.038L244.632 707.041Z" fill="#F28F46"/>
            <path opacity="0.8" d="M1002.87 698.735C1001.67 696.828 1000.47 694.921 999.372 693.014C998.827 692.196 998.394 691.243 997.849 690.425C997.083 689.063 996.321 687.837 995.555 686.476C995.121 685.658 994.572 684.84 994.138 684.024C993.044 682.115 991.955 680.072 990.866 678.166C990.427 677.348 989.994 676.53 989.555 675.576C988.794 674.215 988.138 672.853 987.372 671.49C986.938 670.536 986.394 669.583 985.955 668.765C985.083 666.995 984.211 665.224 983.338 663.452C982.9 662.499 982.355 661.41 981.916 660.455C981.155 658.958 980.5 657.459 979.738 655.825C979.3 654.871 978.861 653.916 978.427 652.963C977.772 651.464 977.116 649.967 976.355 648.468C976.027 647.65 975.589 646.697 975.261 645.879C974.716 644.654 974.172 643.291 973.627 642.065H0.125V645.335L1003.85 700.506C1003.52 699.826 1003.19 699.28 1002.87 698.735Z" fill="#EF763A"/>
            <path opacity="0.8" d="M916.27 816.801C916.27 816.801 916.185 816.801 916.27 816.801C914.854 816.297 913.523 815.796 912.282 815.208C911.929 815.041 911.576 814.957 911.223 814.789C909.625 814.118 908.122 813.53 906.524 812.861C906.08 812.693 905.551 812.442 905.107 812.274C903.958 811.77 902.717 811.267 901.563 810.68C901.119 810.512 900.675 810.262 900.237 810.094C898.729 809.423 897.222 808.668 895.714 807.997C895.361 807.829 894.917 807.577 894.565 807.411C893.415 806.824 892.26 806.237 891.02 805.649C890.491 805.398 890.047 805.146 889.512 804.894C888.096 804.141 886.679 803.386 885.262 802.631C884.995 802.463 884.733 802.295 884.465 802.211C883.225 801.542 881.894 800.787 880.654 800.116C880.124 799.864 879.681 799.528 879.151 799.276C877.996 798.607 876.933 797.936 875.783 797.265C875.43 797.013 875.072 796.845 874.719 796.594C873.302 795.756 871.971 794.917 870.554 793.995C870.111 793.659 869.581 793.407 869.138 793.073C868.165 792.402 867.101 791.731 866.128 791.144C865.684 790.808 865.24 790.556 864.706 790.223C863.38 789.3 862.049 788.461 860.808 787.538C860.365 787.204 859.921 786.952 859.568 786.617C858.595 785.946 857.622 785.191 856.644 784.519C856.114 784.186 855.67 783.766 855.141 783.43C853.986 782.508 852.746 781.669 851.596 780.748C851.239 780.412 850.8 780.16 850.442 779.825C849.469 778.986 848.405 778.232 847.432 777.393C846.897 776.974 846.459 776.554 845.924 776.219C845.037 775.465 844.064 774.71 843.176 773.955C842.823 773.62 842.38 773.284 842.027 772.95C840.877 771.944 839.723 770.937 838.573 769.848C838.129 769.428 837.595 769.009 837.156 768.589C836.354 767.834 835.558 767.081 834.761 766.326C834.317 765.906 833.874 765.487 833.435 765.067C832.281 763.978 831.217 762.972 830.153 761.881C829.714 761.461 829.356 761.044 828.912 760.624C828.116 759.869 827.41 759.114 826.613 758.277C826.17 757.774 825.726 757.354 825.282 756.851C824.309 755.844 823.422 754.839 822.449 753.832C822.267 753.664 822.091 753.497 821.914 753.245L0 797.684L269.955 827.367L916.27 816.801Z" fill="#FF833E"/>
            <path opacity="0.8" d="M0 786.766V842.858L144.757 835.555L0 786.766Z" fill="#F28F46"/>
            <path opacity="0.8" d="M620.98 683.816L483.252 706.694L606.252 722.405C611.521 710.828 616.462 697.873 620.98 683.816Z" fill="#F28F46"/>
        </g>
    </g>
    <defs>
        <clipPath id="clip0">
            <rect width="1080" height="1080" fill="white"/>
        </clipPath>
    </defs>
</svg>
